<svg width="45" height="42" viewBox="0 0 45 42" fill="none" xmlns="http://www.w3.org/2000/svg">
<path d="M29.2744 5.39987C29.7465 5.12972 30.3907 4.75441 31.0928 4.3403L32.9326 3.25534L30.9268 2.06393C30.1756 1.62233 29.4823 1.21692 28.9707 0.921356C28.7146 0.773422 28.5051 0.65363 28.3574 0.57077C28.3505 0.566907 28.3435 0.563707 28.3369 0.560028C28.2343 0.614998 28.098 0.688569 27.9355 0.780731C27.5565 0.995774 27.0434 1.29599 26.4873 1.62839H26.4863C25.5768 2.17631 24.6421 2.73116 24.1787 3.00339L26.1855 4.18698L26.1865 4.18796C26.9377 4.63407 27.6276 5.04182 28.1338 5.3403C28.3869 5.48956 28.5944 5.61119 28.7402 5.69675C28.7416 5.69757 28.7428 5.69886 28.7441 5.69968C28.8753 5.62755 29.0552 5.52529 29.2744 5.39987Z" stroke="white"/>
<path d="M25.207 7.80902C25.4524 7.67232 25.7717 7.48813 26.0879 7.30219C26.2754 7.19187 26.459 7.07884 26.626 6.97797C26.5786 6.94987 26.5295 6.92031 26.4785 6.89008C25.9851 6.59775 25.33 6.21087 24.6709 5.82269C24.0118 5.43448 23.3487 5.04455 22.8398 4.74652C22.5853 4.59747 22.3692 4.4717 22.2119 4.38031C22.1517 4.34536 22.1001 4.31632 22.0586 4.29242C22.048 4.29683 22.0355 4.3002 22.0225 4.30609C21.8531 4.38247 21.5738 4.53837 21.0859 4.82953L21.084 4.83148L20.4473 5.21722C20.4634 5.22761 20.4802 5.23768 20.4971 5.24847C20.9402 5.53231 21.6048 5.9377 22.4561 6.44183H22.457C23.1979 6.88251 23.8837 7.28244 24.3887 7.57172C24.6413 7.71644 24.8468 7.83313 24.9912 7.91254C24.9952 7.91473 24.9991 7.91725 25.0029 7.91937C25.0608 7.88831 25.1299 7.85199 25.207 7.80902Z" stroke="white"/>
<path d="M20.9277 20.0273C20.9102 17.7742 20.9038 16.604 20.9229 15.9785C20.9321 15.6738 20.9478 15.459 20.9834 15.3017C21.003 15.2153 21.0319 15.1293 21.0791 15.0468C21.127 14.9634 21.1802 14.9065 21.21 14.8759L21.2188 14.8681L21.2275 14.8593C21.2686 14.8211 21.3215 14.7861 21.3359 14.7763C21.366 14.7561 21.4047 14.7315 21.4492 14.7031C21.5392 14.6457 21.6642 14.5677 21.8184 14.4726C22.1271 14.2821 22.5606 14.0178 23.0869 13.7002C24.1401 13.0646 25.5679 12.2118 27.1162 11.2959C30.2057 9.46821 33.7921 7.34081 35.0986 6.58005V6.57907C35.7425 6.19719 36.327 5.84281 36.749 5.58102C36.7622 5.57283 36.7752 5.56461 36.7881 5.55661C36.5907 5.43393 36.3663 5.29292 36.1387 5.15524C35.8124 4.9579 35.4851 4.76419 35.2373 4.62106C35.172 4.58334 35.1119 4.55131 35.0605 4.52243C34.9535 4.58511 34.8109 4.66782 34.6367 4.77048C34.2142 5.01949 33.6046 5.3795 32.8535 5.82419L27.0107 9.28806L18.9893 14.042L18.9648 18.2226L18.9482 22.2558C19.6923 22.3891 20.2251 22.7327 20.9463 23.4306L20.9277 20.0273Z" stroke="white"/>
<path d="M20.6992 10.5002L20.7002 10.4993C21.4513 10.0577 22.1411 9.65026 22.6465 9.34888C22.7087 9.31178 22.7679 9.27611 22.8242 9.24243C22.7738 9.21058 22.7221 9.17548 22.667 9.14087C22.1668 8.82692 21.4909 8.41223 20.8086 7.99927C20.1266 7.58647 19.4402 7.17645 18.918 6.87134C18.6564 6.71854 18.4387 6.59265 18.2842 6.50708C18.2801 6.50483 18.2754 6.5034 18.2715 6.50122C18.269 6.50265 18.2662 6.50368 18.2637 6.50513C18.1108 6.59427 17.8907 6.7242 17.6191 6.88403C17.0759 7.20375 16.3295 7.64556 15.5127 8.13208H15.5117C14.4035 8.79019 13.7083 9.21151 13.2881 9.48071C13.8055 9.78849 14.6121 10.268 15.4932 10.7883L15.4941 10.7893C16.6913 11.5007 17.336 11.8761 17.7021 12.0618C17.7969 12.1098 17.8627 12.141 17.9072 12.1594C18.2893 11.9292 19.4372 11.2465 20.6992 10.5002Z" stroke="white"/>
<path d="M41.4131 10.6546L41.415 10.6537C42.1927 10.194 42.9172 9.76571 43.4014 9.47885C43.0214 9.23535 42.4125 8.86586 41.4678 8.30405C40.7315 7.86799 40.0488 7.47288 39.5439 7.18881C39.2911 7.04655 39.0857 6.93374 38.9414 6.85776C38.9366 6.85523 38.9314 6.85334 38.9268 6.85092C38.9251 6.85181 38.9235 6.85295 38.9219 6.85385C38.7885 6.92713 38.6001 7.03408 38.3701 7.16635C37.9106 7.43056 37.2916 7.79394 36.626 8.1937L36.623 8.19467L34.8955 9.22885C34.8688 9.24501 34.8429 9.26126 34.8174 9.2767C34.8508 9.29743 34.8853 9.31914 34.9209 9.34116C35.401 9.63774 36.0711 10.0411 36.8164 10.4818V10.4828L39.2676 11.9369L41.4131 10.6546Z" stroke="white"/>
<path d="M36.4561 13.5922V13.5931C36.6797 13.4603 36.8924 13.332 37.0781 13.2201C37.0313 13.1904 36.9836 13.1575 36.9326 13.1254C36.4458 12.8189 35.7876 12.4151 35.1221 12.0131C34.4565 11.6109 33.7856 11.212 33.2744 10.9154C33.0183 10.7668 32.805 10.6456 32.6533 10.5629C32.6457 10.5587 32.6381 10.5551 32.6309 10.5511C32.5865 10.5761 32.535 10.6045 32.4785 10.6371C32.2564 10.7654 31.9564 10.9432 31.6338 11.14C31.4145 11.2737 31.21 11.404 31.0332 11.516C31.164 11.5979 31.3109 11.687 31.4668 11.7777L31.4688 11.7797C32.0673 12.1318 33.2726 12.8441 34.1523 13.3676L35.4893 14.1635L36.4561 13.5922Z" stroke="white"/>
<path d="M16.8086 22.2026V14.0962L14.3203 12.6264H14.3193C13.5678 12.1801 12.8761 11.7694 12.3672 11.4702C12.3171 11.4407 12.268 11.4134 12.2217 11.3862C12.2162 11.6317 12.2096 11.9284 12.2051 12.27C12.1908 13.3493 12.1816 14.8668 12.1816 16.6059V22.2026H16.8086Z" stroke="white"/>
<path d="M32.8965 36.0866L38.7578 32.6208L44.499 29.2224V20.0104C44.499 17.4049 44.4924 15.0338 44.4814 13.3161C44.4763 12.5121 44.4687 11.8522 44.4619 11.3786C44.0548 11.6159 43.49 11.9478 42.8037 12.3522L37.166 15.6882L29.4531 20.2692L29.4277 28.2819L29.4111 36.0866H32.8965Z" stroke="white"/>
<path d="M28.3789 18.3624C28.5328 18.2735 28.7522 18.1455 29.0215 17.9874C29.5601 17.6712 30.2957 17.2365 31.0996 16.7589H31.1006C32.2061 16.1042 32.9076 15.6817 33.3301 15.4102C33.2413 15.3563 33.1445 15.2963 33.04 15.2335C32.5551 14.9417 31.9221 14.5668 31.2891 14.1954C30.6559 13.824 30.0238 13.4568 29.541 13.1808C29.2996 13.0427 29.0973 12.9282 28.9512 12.8477C28.9357 12.8392 28.9202 12.8319 28.9062 12.8243C28.8928 12.831 28.8774 12.8372 28.8623 12.8448C28.7041 12.9248 28.4797 13.0453 28.2041 13.1983C27.6539 13.504 26.9137 13.9315 26.1172 14.4073L26.1143 14.4093L24.9805 15.0811C24.632 15.2892 24.3181 15.4784 24.0547 15.6388C23.9902 15.678 23.9291 15.7165 23.8711 15.752C23.9242 15.7841 23.98 15.8177 24.0381 15.8526C24.5397 16.1541 25.2109 16.5508 25.8848 16.9454C26.5586 17.34 27.2336 17.7321 27.7441 18.0235C27.9997 18.1694 28.2126 18.289 28.3623 18.3712V18.3722C28.3677 18.369 28.3733 18.3656 28.3789 18.3624Z" stroke="white"/>
<path d="M27.0283 36.0866H27.2676V20.2946L26.3076 19.7195C25.6472 19.3273 24.4684 18.6357 23.7148 18.1862L23.0801 17.8122V25.5827L24.4463 27.0261L24.4482 27.0271C24.9139 27.523 25.3152 27.9724 25.6191 28.3327C25.9068 28.6737 26.1467 28.9806 26.2441 29.1736L26.2461 29.1775C26.9501 30.6011 26.6842 32.1602 25.5713 33.3327L25.5703 33.3337C25.3161 33.5997 24.9795 33.8512 24.6592 34.0368C24.5528 34.0984 24.4433 34.1531 24.3359 34.2019C24.5316 34.4055 24.7678 34.6437 25.0098 34.8825C25.3142 35.1831 25.6241 35.4814 25.8711 35.7087C25.995 35.8228 26.1003 35.9152 26.1787 35.9812C26.2026 36.0013 26.2221 36.0182 26.2383 36.031C26.2472 36.0325 26.2579 36.034 26.2695 36.0359C26.3243 36.0444 26.3947 36.0525 26.4766 36.0603C26.6409 36.0758 26.8385 36.0866 27.0283 36.0866Z" stroke="white"/>
<path d="M3.12402 37.9833C3.92551 37.9833 4.58358 37.9744 5.05176 37.9589C5.28657 37.9511 5.46888 37.9417 5.5957 37.9316C5.63214 37.9287 5.66189 37.9254 5.68555 37.9228C5.70963 37.8332 5.743 37.6281 5.76562 37.165C5.8176 36.101 5.81543 33.9618 5.81543 29.5195C5.81543 26.4169 5.80941 24.3405 5.79297 23.0195C5.78474 22.3585 5.774 21.8911 5.76074 21.58C5.75409 21.424 5.74726 21.3133 5.74023 21.2402C5.73862 21.2234 5.73567 21.2097 5.73438 21.1992C5.72111 21.1721 5.71328 21.1578 5.70898 21.1513C5.69545 21.1443 5.64747 21.1224 5.52344 21.1025C5.16564 21.0451 4.4964 21.037 3.11523 21.037H0.796875L0.660156 21.164L0.654297 21.1699L0.52832 21.2831L0.50293 29.2587C0.498535 31.5081 0.498538 33.5858 0.50293 35.1201C0.505126 35.8873 0.508317 36.518 0.512695 36.9658C0.514887 37.1899 0.517823 37.3673 0.520508 37.4921C0.521853 37.5546 0.523092 37.6019 0.524414 37.6347C0.524837 37.6452 0.525104 37.6529 0.525391 37.6581C0.527383 37.6651 0.531199 37.6738 0.535156 37.6845C0.543934 37.7082 0.556729 37.7365 0.572266 37.7656C0.605982 37.8286 0.640282 37.8714 0.657227 37.8876L0.668945 37.8994L0.750977 37.9833H3.12402Z" stroke="white"/>
<path d="M27.8564 41.5C32.9711 41.5 35.3663 41.5064 36.5596 41.4453C37.1686 41.4141 37.3948 41.3666 37.4961 41.3262C37.5301 41.3126 37.5418 41.3074 37.5684 41.2822L37.7314 41.1191C37.9184 40.9351 37.9951 40.8201 38.041 40.6904C38.0801 40.5798 38.1057 40.4327 38.1182 40.1934L38.126 39.9199C38.1259 39.5792 38.1184 39.4257 38.0967 39.3164C38.0793 39.229 38.0503 39.1555 37.957 38.9873C37.9137 38.9132 37.8379 38.8128 37.749 38.7148C37.6585 38.6152 37.5808 38.5484 37.541 38.5215L37.3389 38.3955L31.7646 38.3516L26.0498 38.3066L25.9346 38.3057L25.8311 38.2539L25.251 37.9648L25.248 37.9639C24.8695 37.7726 24.5597 37.5237 23.5996 36.54C22.6298 35.5464 20.9513 33.7535 17.8281 30.4102L17.083 29.6172L16.7539 29.2686L17.0889 28.9258L17.4932 28.5107L17.4971 28.5068L17.9014 28.1016L18.2646 27.7373L18.6182 28.1104L19.8838 29.4443L19.8857 29.4463C20.5785 30.1839 21.4103 31.073 21.7227 31.4209L21.7217 31.4219C22.0584 31.7842 22.2807 31.9723 22.4678 32.0771C22.6353 32.171 22.7988 32.2109 23.0557 32.2109C23.3346 32.2109 23.4667 32.1902 23.5635 32.1543C23.6562 32.1199 23.7603 32.055 23.9492 31.8818L23.9541 31.8779C24.4703 31.417 24.5957 30.706 24.3242 30.1787C24.3166 30.1686 24.3019 30.1495 24.2773 30.1191C24.2338 30.0653 24.173 29.9934 24.0957 29.9043C23.9415 29.7265 23.7293 29.4896 23.4736 29.21C22.9627 28.6511 22.2843 27.9281 21.5615 27.1777L21.5605 27.1768C20.4464 26.0158 19.7823 25.3345 19.3594 24.9326C18.9149 24.5102 18.8036 24.467 18.7832 24.4609C18.7832 24.4609 18.7789 24.4599 18.7695 24.458C18.7595 24.456 18.7457 24.453 18.7275 24.4502C18.6905 24.4446 18.6407 24.4393 18.5771 24.4336C18.4496 24.4222 18.2782 24.4125 18.0586 24.4053C17.6207 24.391 17.0099 24.3862 16.2051 24.3906C14.9016 24.4087 12.403 24.4265 10.6533 24.4355H10.6543L7.95898 24.459V34.375H8.15332C9.02866 34.375 9.79199 34.5064 10.3623 34.7881V34.7871L10.3691 34.791C10.4375 34.8261 10.5226 34.8885 10.5859 34.9355C10.6641 34.9936 10.7637 35.0708 10.8809 35.1631C11.1161 35.3483 11.4314 35.6022 11.8027 35.9062C12.546 36.5148 13.5217 37.3287 14.5518 38.2002C15.5794 39.0696 16.5427 39.8754 17.2676 40.4707C17.6302 40.7685 17.9313 41.0123 18.1504 41.1846C18.2602 41.2709 18.3465 41.3367 18.4082 41.3818C18.4235 41.3931 18.4366 41.4026 18.4473 41.4102C18.4549 41.4114 18.4644 41.4126 18.4756 41.4141C18.5395 41.4225 18.6382 41.4313 18.7861 41.4395C19.0817 41.4557 19.5408 41.4685 20.2422 41.4775C21.6428 41.4955 23.9826 41.5 27.8564 41.5Z" stroke="white"/>
</svg>
