<svg width="46" height="45" viewBox="0 0 46 45" fill="none" xmlns="http://www.w3.org/2000/svg">
<path d="M2.83105 30.1131C5.04308 32.3166 8.53135 32.2984 10.7158 30.0779H10.7168C12.424 28.3455 12.8454 25.9715 11.8389 23.6971L11.834 23.6863C11.7207 23.4132 11.874 23.1906 11.9033 23.1482C11.9561 23.0721 12.0234 23.0064 12.0801 22.9558C12.1991 22.8498 12.3755 22.7177 12.6084 22.5564C13.0803 22.2297 13.8526 21.7343 15.0312 20.9939V20.9949L18.0889 19.0633L18.3945 18.8699L18.6738 19.1013L19.2705 19.5935C19.9409 20.1302 20.8876 20.6223 21.6367 20.8172C22.7624 21.1057 24.3305 20.9186 25.458 20.3728L25.6777 20.2586C26.0353 20.06 26.4767 19.7065 26.8896 19.2918C27.3024 18.8772 27.6547 18.4343 27.8525 18.075L27.8535 18.073C28.4749 16.9581 28.6822 15.4954 28.418 14.1756L28.3584 13.9129C28.3034 13.6968 28.2569 13.4905 28.2275 13.3299C28.2132 13.2511 28.2013 13.1723 28.1953 13.1053C28.1925 13.0737 28.1899 13.0289 28.1924 12.9812C28.1936 12.9579 28.1965 12.9175 28.208 12.8709C28.2162 12.8378 28.2454 12.7274 28.3438 12.6287L28.3447 12.6306C28.3552 12.62 28.3611 12.6122 28.3623 12.6111C28.3748 12.5997 28.3857 12.5905 28.3916 12.5857C28.404 12.5759 28.4159 12.567 28.4238 12.5613C28.4407 12.5492 28.4607 12.5353 28.4814 12.5213C28.5243 12.4923 28.5845 12.4533 28.6572 12.406C28.8037 12.3108 29.0124 12.177 29.2656 12.0154C29.7724 11.692 30.4648 11.2526 31.2168 10.7752L31.2188 10.7732L33.9678 9.04764L34.3379 8.81424L34.6182 9.15115L34.9092 9.50272L34.915 9.50955C36.7793 11.8364 39.8476 12.3987 42.25 10.9392L42.4805 10.7918C45.63 8.6772 45.8651 4.19102 42.9346 1.741L42.9336 1.74002C42.4776 1.3585 41.67 0.932251 40.9922 0.705841L40.7109 0.621857C40.373 0.535151 39.8814 0.491441 39.3535 0.500763C38.828 0.510055 38.3047 0.571515 37.9102 0.671661H37.9092C37.0065 0.910372 36.2009 1.3866 35.4521 2.13846C34.3403 3.25506 33.8106 4.53326 33.8105 6.0867C33.8105 6.55787 33.8684 7.14193 33.9297 7.37283L33.9287 7.37381C33.9773 7.55323 34.0115 7.7252 34.0244 7.87088C34.0308 7.94257 34.0344 8.02418 34.0264 8.1033C34.0223 8.14276 34.0141 8.19475 33.9961 8.25076C33.9838 8.28894 33.9594 8.35012 33.9131 8.41385L33.8594 8.47733L33.7744 8.54861C33.7569 8.56122 33.7355 8.57614 33.7129 8.59158C33.6671 8.62282 33.6048 8.66397 33.5293 8.71365C33.3774 8.81365 33.1645 8.95142 32.9072 9.11697C32.3923 9.44827 31.6948 9.89347 30.9365 10.3719H30.9355L28.1875 12.0984L27.8457 12.3123L27.5635 12.0242L27.001 11.449L26.999 11.448C24.4512 8.82665 20.2475 9.21688 18.2695 12.2498V12.2508C17.2719 13.7806 17.0794 15.5475 17.7197 17.3592L17.7188 17.3601C17.7932 17.5601 17.8581 17.7475 17.9014 17.8924C17.9229 17.9644 17.9415 18.0344 17.9541 18.0926C17.9599 18.1195 17.9678 18.1585 17.9717 18.2C17.9734 18.2191 17.9768 18.2578 17.9727 18.3045C17.9706 18.3281 17.965 18.3679 17.9502 18.4148C17.9367 18.4578 17.9042 18.5415 17.8262 18.6199L17.8037 18.6433L17.7773 18.6629L17.4521 18.8758C17.2823 18.9839 17.047 19.1329 16.7686 19.3084C16.2113 19.6597 15.4787 20.119 14.7471 20.5769C14.0155 21.0348 13.2837 21.4915 12.7275 21.8367C12.4497 22.0092 12.2151 22.1549 12.0459 22.2586C11.9616 22.3103 11.8923 22.3523 11.8418 22.3826C11.8167 22.3976 11.7942 22.4104 11.7764 22.4207C11.7737 22.4222 11.7323 22.447 11.6924 22.4637L11.6846 22.4676L11.6758 22.4705C11.5456 22.5195 11.4295 22.506 11.373 22.4959C11.3088 22.4844 11.2535 22.4641 11.2129 22.4471C11.1309 22.4127 11.0494 22.3653 10.9775 22.3181C10.8303 22.2216 10.6614 22.0865 10.4932 21.9334L10.4912 21.9314C8.33153 19.9411 4.91814 20.0277 2.83301 22.1306C1.73972 23.2381 1.18164 24.5749 1.18164 26.1277C1.18164 27.6825 1.74101 29.0273 2.83105 30.1131ZM39.4287 11.1707C38.9582 11.1707 38.6257 11.1613 38.3447 11.1219C38.0483 11.0802 37.8213 11.0069 37.5586 10.8992C36.6722 10.5496 35.7015 9.77595 35.1787 8.99979C33.1853 6.0457 34.6937 2.09908 38.1533 1.12088V1.1199C38.5492 1.00547 39.0779 0.976105 39.5781 0.997833C40.0836 1.01981 40.6185 1.09739 41.0381 1.23221L41.0439 1.23416C42.385 1.68309 43.6364 2.90473 44.1738 4.26151L44.1748 4.26053C44.2818 4.52395 44.3541 4.75078 44.3955 5.04764C44.4348 5.3294 44.4443 5.66287 44.4443 6.13553C44.4443 6.66362 44.4438 7.00406 44.3867 7.30252C44.3267 7.61649 44.2069 7.87134 44.0371 8.23123L44.0361 8.23416L43.9307 8.44412C43.6784 8.92405 43.3824 9.32963 42.9971 9.71658C42.5568 10.1586 42.0923 10.4831 41.5205 10.7596L41.5176 10.7605L41.2656 10.8797C41.0285 10.9882 40.8268 11.0668 40.5918 11.1121C40.2939 11.1695 39.9543 11.1707 39.4287 11.1707ZM26.4893 18.9998C24.2512 21.1394 20.7661 20.9119 18.9092 18.4617L18.9082 18.4607C18.5328 17.9615 18.2695 17.5266 18.1094 17.0213C17.9506 16.52 17.9043 15.9845 17.9043 15.3025C17.9043 14.7747 17.905 14.4348 17.9619 14.1365C18.022 13.8224 18.1417 13.5669 18.3115 13.2068L18.4092 13.0115C18.9069 12.0596 19.6322 11.304 20.5391 10.823H20.54C20.9929 10.5831 21.3523 10.4207 21.7578 10.3328C22.1595 10.2457 22.5761 10.2388 23.1318 10.2586L23.1309 10.2596C23.8305 10.28 24.2993 10.3517 24.7783 10.5349L24.7812 10.5359C28.2553 11.8862 29.1745 16.4331 26.4893 18.9998ZM10.9023 29.1355C8.61958 32.2325 3.90447 31.8829 2.16504 28.3474V28.3465C0.554258 25.0461 2.92515 21.1612 6.62598 20.9568H6.6543C6.80249 20.9569 7.20709 21.0009 7.54883 21.0486L7.55664 21.0506C9.00903 21.2791 10.4912 22.3063 11.2168 23.5896C12.1209 25.1893 12.0813 27.2981 11.1162 28.823L11.1152 28.825L10.9023 29.1355Z" stroke="white"/>
<path d="M39.3882 9.82986C39.4115 9.82986 39.4439 9.82542 39.481 9.81229C39.518 9.79914 39.5529 9.78013 39.5806 9.75955C39.596 9.74805 39.6051 9.7365 39.6118 9.72928C39.6221 9.64236 39.6507 9.57477 39.6714 9.53397C39.6992 9.47924 39.7316 9.43471 39.7583 9.40213C39.8117 9.337 39.8747 9.27933 39.9331 9.23221C39.9927 9.1842 40.0603 9.13616 40.1333 9.09061L40.3647 8.96268C41.1051 8.57303 41.4137 7.86277 41.2739 7.32596C41.1599 6.91175 40.8513 6.55719 39.6401 5.94901C39.026 5.64064 38.5972 5.41136 38.3511 5.20486C38.2236 5.09787 38.0792 4.94483 38.0229 4.7283C37.9621 4.49381 38.0311 4.29426 38.0991 4.1619L38.103 4.15506L38.1069 4.14725C38.2011 3.97844 38.3495 3.86454 38.4663 3.79276C38.5925 3.71526 38.7355 3.65404 38.8765 3.60916C39.1422 3.52461 39.4935 3.46933 39.7983 3.54373L39.8091 3.54666C39.9772 3.59168 40.1467 3.70098 40.269 3.79178C40.4008 3.88961 40.5394 4.01439 40.6567 4.14822L40.6577 4.14725C40.7939 4.2934 40.8521 4.33716 40.8813 4.3533C40.8888 4.35738 40.9028 4.36893 40.9907 4.36893C41.0886 4.36893 41.1228 4.34555 41.1353 4.33572C41.1508 4.32342 41.1856 4.28582 41.2212 4.18143C41.2188 4.16765 41.2135 4.13576 41.1909 4.08377C41.1472 3.98318 41.0662 3.85537 40.9517 3.72049C40.714 3.44076 40.411 3.22187 40.1841 3.15213V3.15115C40.0347 3.10965 39.9044 3.02906 39.8071 2.92557C39.7173 2.82984 39.6281 2.68411 39.6108 2.50272C39.5989 2.48594 39.5777 2.46004 39.5444 2.4324C39.507 2.40127 39.4668 2.37579 39.4312 2.36014C39.4134 2.35235 39.4004 2.3493 39.3931 2.34744C39.3835 2.35037 39.37 2.35538 39.354 2.36307C39.3134 2.38265 39.2789 2.40834 39.2593 2.42947L39.2476 2.44217L39.2339 2.45486C39.2155 2.47202 39.1971 2.49139 39.1802 2.51151L39.1401 2.56619C39.1207 2.66973 39.0773 2.7498 39.0464 2.79764C39.0005 2.86851 38.9452 2.92665 38.894 2.97244C38.7913 3.06441 38.6611 3.1443 38.521 3.19901C38.2456 3.31677 37.9852 3.53253 37.7935 3.79568C37.5975 4.06479 37.4995 4.34643 37.4995 4.57596C37.4995 4.93696 37.5738 5.14526 37.7886 5.3699C38.0439 5.63698 38.5064 5.93304 39.3647 6.37381V6.37479C39.6501 6.52176 39.8839 6.64542 40.0679 6.75369C40.2463 6.85872 40.4064 6.96456 40.5269 7.07889C40.649 7.19481 40.7845 7.37196 40.7983 7.61795C40.8113 7.85041 40.7057 8.03103 40.6372 8.1326C40.3888 8.5055 39.9221 8.64338 39.5708 8.67361C39.2 8.70552 38.7379 8.63935 38.3989 8.37186C38.2966 8.29108 38.2033 8.19507 38.1323 8.10135C38.0968 8.05444 38.0602 7.99857 38.0298 7.93826C38.0139 7.90673 37.9858 7.84651 37.9692 7.76834C37.9453 7.75761 37.9112 7.74413 37.8657 7.73514C37.7887 7.71995 37.7123 7.72018 37.6558 7.73123C37.63 7.73629 37.6155 7.74282 37.6089 7.74588C37.5626 7.80283 37.5145 7.93856 37.6333 8.1951C37.7525 8.4522 38.0071 8.73082 38.3599 8.90799L38.3589 8.90897C38.5155 8.98519 38.6641 9.06867 38.7798 9.1492C38.8365 9.18872 38.8989 9.23682 38.9526 9.28983C38.9789 9.31579 39.0153 9.35479 39.0483 9.40506C39.0664 9.4325 39.1024 9.49424 39.1235 9.58084C39.1221 9.57599 39.122 9.57238 39.1216 9.57108C39.121 9.5693 39.12 9.56811 39.1196 9.56717C39.1229 9.57459 39.1305 9.59064 39.1431 9.61307C39.1686 9.65852 39.2054 9.71398 39.2456 9.76443L39.2476 9.76736C39.2684 9.79383 39.2828 9.80761 39.2905 9.81424C39.2941 9.81732 39.2963 9.81943 39.2974 9.8201C39.2982 9.82065 39.2992 9.82101 39.2993 9.82108C39.2998 9.82127 39.301 9.82166 39.3022 9.82205C39.3044 9.82271 39.3081 9.82389 39.314 9.82498C39.3272 9.82743 39.3505 9.82985 39.3882 9.82986ZM39.1343 9.62381C39.1336 9.62 39.132 9.61653 39.1313 9.61307C39.132 9.61684 39.1307 9.62093 39.1313 9.62479L39.1343 9.62381Z" stroke="white"/>
<path d="M22.9775 19.081C23.0177 19.0618 23.0665 19.031 23.1133 18.9921C23.1569 18.9557 23.1871 18.9215 23.2041 18.8983C23.2209 18.7834 23.2675 18.6948 23.3008 18.6435C23.3466 18.5726 23.402 18.5144 23.4531 18.4687C23.5529 18.3794 23.6781 18.3024 23.8135 18.248V18.247C24.4184 17.9932 24.8476 17.361 24.8477 16.8163C24.8477 16.4933 24.7735 16.2853 24.5635 16.0634C24.3805 15.8703 24.0889 15.6613 23.6221 15.4032L23.0947 15.1278L23.0898 15.1259C22.7974 14.9766 22.515 14.8231 22.2939 14.6942C22.184 14.6302 22.0846 14.5688 22.0049 14.5155C21.9653 14.4891 21.9253 14.4615 21.8896 14.4335C21.8648 14.414 21.8145 14.3729 21.7686 14.3173H21.7676C21.6208 14.1404 21.5342 13.9105 21.5723 13.6591C21.6086 13.4199 21.746 13.237 21.8926 13.1132C22.1789 12.8715 22.6026 12.7567 23.0361 12.7567C23.2356 12.7568 23.4525 12.771 23.6777 12.8964C23.8709 13.004 24.0334 13.1769 24.1992 13.3573L24.2002 13.3564C24.4139 13.5885 24.537 13.637 24.5732 13.6435C24.5804 13.6447 24.5798 13.6444 24.582 13.6435C24.5857 13.6419 24.5948 13.6367 24.6094 13.6259L24.668 13.5722L24.6719 13.5683C24.7305 13.5058 24.7768 13.3871 24.6768 13.1698C24.5753 12.9497 24.3407 12.6971 23.9814 12.5302H23.9805C23.8212 12.4559 23.6738 12.3708 23.5586 12.2899C23.5021 12.2503 23.4428 12.2038 23.3916 12.1542C23.3664 12.1298 23.3339 12.0964 23.3037 12.0546C23.2819 12.0244 23.2324 11.9503 23.209 11.8446C23.2065 11.8395 23.2036 11.831 23.1982 11.8212C23.1761 11.7805 23.1417 11.7272 23.1016 11.6767L23.0986 11.6737C23.0716 11.6392 23.0208 11.6084 22.9502 11.6044C22.8796 11.6005 22.8221 11.625 22.7881 11.6591C22.7796 11.6676 22.7696 11.6798 22.7588 11.6942C22.7481 11.7085 22.7381 11.7217 22.7314 11.7333C22.7086 11.8788 22.6349 11.9815 22.6055 12.0204C22.5556 12.0863 22.497 12.1433 22.4443 12.1884C22.337 12.2802 22.2023 12.3686 22.0635 12.4413L22.0527 12.4472C21.594 12.6733 21.3833 12.8874 21.2285 13.1913C21.1151 13.4245 21.0614 13.5833 21.041 13.7128C21.022 13.8339 21.0292 13.9523 21.0713 14.1083C21.1847 14.5194 21.4962 14.8852 22.6895 15.494C23.0432 15.6705 23.3203 15.8087 23.5312 15.9218C23.7368 16.032 23.9085 16.1321 24.0342 16.2314C24.1568 16.3282 24.3177 16.487 24.3545 16.7343C24.3874 16.9559 24.2972 17.1432 24.2686 17.2069C24.1878 17.3868 24.0506 17.516 23.9297 17.6034C23.8028 17.6951 23.6574 17.767 23.5127 17.8192C23.2362 17.9189 22.8773 17.9774 22.5547 17.8964L22.5508 17.8954C22.1033 17.7789 21.7428 17.4005 21.4297 16.9442C21.4195 16.9295 21.4108 16.9231 21.3916 16.9189C21.3654 16.9131 21.3187 16.9129 21.2617 16.9345C21.137 16.9819 21.0891 17.0718 21.0889 17.1376C21.0889 17.1695 21.1026 17.2485 21.165 17.372C21.2249 17.4901 21.3158 17.6227 21.4307 17.7528C21.6694 18.0232 21.9548 18.2226 22.1719 18.289L22.1709 18.2909C22.3225 18.3342 22.4518 18.4182 22.5459 18.5214C22.631 18.6148 22.7183 18.7584 22.7354 18.9384C22.7473 18.9551 22.7685 18.981 22.8018 19.0087C22.8393 19.0399 22.8804 19.0643 22.916 19.08C22.9301 19.0862 22.9407 19.0905 22.9482 19.0927C22.9548 19.0903 22.965 19.087 22.9775 19.081Z" stroke="white"/>
<path d="M6.72461 29.8933C6.75839 29.9035 6.80282 29.9044 6.86328 29.8582L6.87109 29.8523C6.88067 29.8452 6.89469 29.8334 6.91016 29.8171C6.9253 29.8012 6.93917 29.7834 6.95117 29.7664C6.96354 29.7487 6.97157 29.7357 6.97461 29.7292C6.97278 29.7343 6.96875 29.7458 6.96582 29.7634V29.7644C7.02167 29.406 7.30642 29.1914 7.55176 29.0701L7.6543 29.0232C8.41843 28.7019 8.80204 27.9169 8.6377 27.3152L8.63477 27.3054C8.54087 26.9343 8.29782 26.6324 6.9082 25.9099H6.90723C6.53576 25.7159 6.20482 25.5286 5.95996 25.3738C5.83893 25.2972 5.72888 25.2227 5.64355 25.155C5.60183 25.1219 5.5547 25.0818 5.5127 25.0369C5.49126 25.0139 5.38885 24.9076 5.35645 24.7449V24.7429C5.28304 24.3668 5.47746 24.0766 5.68652 23.9089C5.88656 23.7486 6.1411 23.6565 6.37793 23.6111C6.62088 23.5645 6.88988 23.5589 7.14453 23.6062C7.38793 23.6515 7.65738 23.7546 7.86719 23.9607L7.86816 23.9597C7.95649 24.0421 8.03788 24.1326 8.10059 24.2166C8.1314 24.2578 8.16389 24.3061 8.19141 24.3572C8.19432 24.3626 8.19783 24.3728 8.2041 24.3855C8.20989 24.3873 8.21599 24.3905 8.22266 24.3923C8.27401 24.4066 8.32906 24.4155 8.37402 24.4167C8.38816 24.4171 8.39923 24.4164 8.40723 24.4158C8.50287 24.3663 8.54713 24.312 8.56543 24.2742C8.58324 24.2373 8.59205 24.1864 8.56738 24.1121C8.53543 24.0162 8.41949 23.8359 8.21973 23.6375C8.02752 23.4466 7.81474 23.2969 7.65234 23.2263C7.50375 23.1659 7.35597 23.0857 7.23633 22.9773C7.12824 22.8794 7.0079 22.7229 6.9834 22.5115C6.96828 22.4927 6.9437 22.4652 6.90723 22.4363C6.86329 22.4015 6.81548 22.3731 6.77441 22.3552C6.76362 22.3505 6.75432 22.3479 6.74707 22.3455C6.74148 22.3479 6.73454 22.3497 6.72754 22.3533C6.70805 22.3633 6.68797 22.3762 6.66992 22.3894C6.6516 22.4029 6.63861 22.4143 6.63184 22.4216L6.61914 22.4353L6.60547 22.448L6.55566 22.5017C6.53928 22.5217 6.52575 22.5413 6.51562 22.5574C6.51428 22.5595 6.51283 22.5614 6.51172 22.5632C6.49332 22.6692 6.45052 22.7522 6.41699 22.8044C6.36999 22.8776 6.31384 22.9372 6.2627 22.9832C6.1857 23.0523 6.0947 23.1138 5.99902 23.1628L5.90234 23.2078C5.2646 23.4837 4.87115 24.0787 4.87109 24.6179C4.87109 24.932 4.94816 25.148 5.14453 25.366C5.36625 25.6121 5.75621 25.8778 6.43945 26.2185L6.44043 26.2195C6.81563 26.4079 7.22727 26.6279 7.48926 26.781L7.69434 26.908L7.7002 26.9119C7.88831 27.0458 8.05882 27.23 8.13086 27.4705C8.20883 27.7308 8.15071 27.9886 8.00195 28.1892C7.737 28.5465 7.24071 28.6775 6.76953 28.6775C6.52786 28.6775 6.25277 28.6779 5.96191 28.4832C5.73739 28.3327 5.51368 28.0687 5.21777 27.7175C5.21028 27.7144 5.19293 27.7082 5.16113 27.7068C5.11303 27.7047 5.06243 27.7154 5.01953 27.7351L4.97949 27.7576C4.94026 27.7861 4.92978 27.8084 4.9248 27.8445C4.91716 27.9001 4.92446 28.0151 5.00586 28.2058L5.00488 28.2068C5.16632 28.564 5.37944 28.7804 5.7832 28.9753L5.79004 28.9792C6.07863 29.1242 6.39175 29.3986 6.54688 29.7097L6.54883 29.7136C6.60874 29.8366 6.68357 29.8809 6.72461 29.8933Z" stroke="white"/>
<path d="M44.8438 44.5L44.9102 44.4326C44.9795 44.363 44.9955 44.3107 44.999 44.2852C45.0025 44.2594 44.9981 44.2285 44.9756 44.1914C44.9287 44.1144 44.778 43.9883 44.4785 43.9883H43.4932V43.4893L43.4736 30.6553L43.4443 18.0508L43.3457 17.9648L43.2148 17.8525H36.9951L36.8594 17.9883L36.7236 18.125V43.9883H32.6172L32.6162 43.4893L32.5967 34.167L32.5674 25.0723L32.4697 24.9873L32.3389 24.874H26.1182L25.9834 25.0098L25.8477 25.1465V43.9883H20.9648L20.9629 43.4902L20.9434 37.4834L20.916 31.7041L20.8164 31.6182L20.6855 31.5059H14.4648L14.3301 31.6406L14.1943 31.7773V43.9883H10.1025L10.0967 43.4941L10.0674 40.959C10.0527 39.7014 10.0449 39.0951 10.0156 38.7705C10.0051 38.6542 9.99265 38.6018 9.9873 38.582L9.88379 38.4785H3.52148L3.43652 38.5635L3.41602 38.583C3.41053 38.6037 3.39895 38.6566 3.38867 38.7705C3.35939 39.0951 3.35165 39.7014 3.33691 40.959L3.30859 43.4941L3.30273 43.9883H1.93457C1.72119 43.9883 1.56973 43.9894 1.4541 43.9941C1.33693 43.9989 1.28185 44.0069 1.25391 44.0137C1.2475 44.0152 1.25169 43.996 1.12598 44.1221C1.05891 44.1916 1.0244 44.2387 1.00781 44.2676C1.00704 44.2689 1.00652 44.2703 1.00586 44.2715C1.01668 44.293 1.04254 44.3341 1.09961 44.4004L1.10059 44.4023L1.18359 44.5H44.8438ZM37.2773 18.4121H42.9395V43.9883H37.2773V18.4121ZM26.4014 25.4346H32.0625V43.9883H26.4014V25.4346ZM14.748 32.0654H20.4092V43.9883H14.748V32.0654ZM3.87207 38.9902H9.5332V43.9883H3.87207V38.9902Z" stroke="white"/>
</svg>
