<svg width="45" height="45" viewBox="0 0 45 45" fill="none" xmlns="http://www.w3.org/2000/svg">
<path d="M38.2607 44.2373C40.2301 45.5346 42.9568 45.0111 44.2188 43.0723V43.0713C45.1859 41.6086 45.1952 39.7111 44.2373 38.2666H44.2363C44.184 38.1872 44.005 37.9831 43.7041 37.6611C43.4046 37.3407 42.9879 36.907 42.4648 36.3701C41.4187 35.2962 39.9474 33.8107 38.1367 31.9971L32.3887 26.2715H32.0391C31.8788 26.2715 31.7773 26.2837 31.6709 26.3369C31.6164 26.3642 31.56 26.4031 31.4932 26.457L31.2539 26.6709L30.8125 27.085L30.7773 27.1182L29.7217 26.0625L28.6992 25.041L28.6709 25.0137L28.6914 24.9805L29.0879 24.3281C30.5995 21.8782 31.3028 19.7641 31.5312 17.0166C31.7454 14.3096 31.1713 11.3242 29.999 8.9375L29.7568 8.46875C29.0186 7.12412 28.3954 6.24434 27.4209 5.2041L26.9805 4.74707C24.2928 2.01773 20.7706 0.402982 16.8701 0.12207C16.5662 0.100067 16.2733 0.0795937 16.0479 0.0664062C15.9351 0.0598126 15.8394 0.0554662 15.7676 0.0527344C15.6941 0.0499393 15.6507 0.049256 15.6377 0.0507812V0.0517578H15.6309C15.5621 0.0518595 15.0899 0.0867806 14.5781 0.130859H14.5771C10.9062 0.394155 7.3218 2.05249 4.66895 4.70312C-1.50592 10.8642 -1.48808 20.878 4.71289 26.9951V26.9961C5.18835 27.4711 5.81261 28.0408 6.10059 28.2588V28.2598C10.106 31.3666 15.3327 32.3671 20.2432 30.9541H20.2441C21.6662 30.5506 22.8078 30.0241 24.3115 29.1016L24.9639 28.7051L24.9971 28.6846L25.0244 28.7129L26.0469 29.7344L27.0693 30.7549L27.1035 30.7891L27.0703 30.8252L26.6562 31.2646L26.6553 31.2656C26.4745 31.455 26.3758 31.5736 26.3213 31.6826C26.2682 31.7888 26.2559 31.8899 26.2559 32.0498V32.3994L31.9951 38.1426C33.8058 39.9517 35.2906 41.4216 36.3643 42.4668C36.901 42.9894 37.3347 43.4058 37.6553 43.7051C37.9774 44.0058 38.1813 44.185 38.2607 44.2373ZM16.3555 29.9424C13.447 30.0484 10.9611 29.4207 8.51172 27.9541C3.17936 24.773 0.544385 18.35 2.0918 12.3242C2.73728 9.82396 3.949 7.70282 5.81445 5.84766C8.00726 3.65669 10.6253 2.32187 13.7285 1.82715C14.2125 1.75173 14.9869 1.71217 15.7598 1.70996C16.5326 1.70776 17.3093 1.74292 17.7979 1.81836C21.2278 2.34835 24.2344 3.97396 26.4453 6.50098C28.3289 8.65685 29.4792 11.2198 29.8682 14.1172C29.9392 14.6277 29.9559 15.4391 29.9316 16.2529C29.9074 17.0671 29.8417 17.889 29.7441 18.4209C29.3637 20.4889 28.3644 22.7322 27.0732 24.4199C26.1266 25.6574 24.43 27.1759 23.1289 27.9453C20.9628 29.235 18.8665 29.854 16.3555 29.9424ZM28.2412 29.6025L27.2803 28.6426L26.2852 27.6475L26.3193 27.6123L26.9277 26.9961C27.0953 26.8243 27.2518 26.6675 27.3701 26.5537C27.4292 26.4969 27.4795 26.4505 27.5166 26.418C27.535 26.4018 27.5509 26.3884 27.5635 26.3789C27.5697 26.3742 27.576 26.3697 27.582 26.3662C27.585 26.3645 27.5886 26.3621 27.5928 26.3604C27.5941 26.3598 27.5969 26.3602 27.5996 26.3594V26.3584L27.6025 26.3594C27.6062 26.3585 27.6103 26.3564 27.6152 26.3564V26.3594C27.6251 26.3592 27.6324 26.3586 27.6348 26.3594C27.6404 26.3613 27.6458 26.3632 27.6494 26.3652C27.6569 26.3695 27.6654 26.3756 27.6738 26.3818C27.6911 26.3947 27.714 26.414 27.7412 26.4375C27.796 26.4848 27.8724 26.5542 27.9629 26.6396C28.0534 26.7251 28.1588 26.8276 28.2744 26.9414L28.6465 27.3125L29.5889 28.2549L29.625 28.29L29.5889 28.3252L28.2764 29.6377L28.2412 29.6025ZM29.4746 33.2998L28.1963 32.0234L28.1611 31.9883L28.1963 31.9521L30.0645 30.0859L31.9414 28.2109L31.9775 28.1758L32.0127 28.2109L33.29 29.4873L34.5684 30.7637L34.6035 30.7998L34.5684 30.835L32.7002 32.7012L30.8232 34.5771L30.7871 34.6123L29.4746 33.2998ZM40.6611 43.3242C40.2796 43.3252 39.8944 43.2676 39.5996 43.1465L39.4795 43.0908C39.4023 43.0521 39.2683 42.9488 39.0771 42.7832C38.8834 42.6154 38.6263 42.3791 38.3018 42.0713C37.6525 41.4556 36.7312 40.5505 35.502 39.3223L31.9414 35.7656L31.9062 35.7295L31.9414 35.6943L33.792 33.8457C34.2988 33.3394 34.7665 32.8769 35.1104 32.541C35.2822 32.3732 35.4235 32.2371 35.5234 32.1426C35.5734 32.0954 35.6132 32.0576 35.6416 32.0322C35.6556 32.0197 35.6678 32.0101 35.6768 32.0029C35.6811 31.9995 35.6853 31.9959 35.6895 31.9932C35.6915 31.9918 35.6948 31.99 35.6982 31.9883C35.6995 31.9876 35.7096 31.9824 35.7227 31.9824C35.735 31.9825 35.7441 31.9868 35.7451 31.9873C35.7481 31.9888 35.7505 31.9903 35.752 31.9912C35.755 31.9932 35.7584 31.9952 35.7607 31.9971C35.7656 32.0009 35.7714 32.0066 35.7783 32.0127C35.7927 32.0254 35.8134 32.0444 35.8389 32.0684C35.8901 32.1165 35.9641 32.1875 36.0576 32.2783C36.245 32.4603 36.5126 32.7242 36.8408 33.0488C37.4974 33.6982 38.3964 34.594 39.3789 35.5801C41.3993 37.612 42.4031 38.6171 42.8926 39.2588C43.1382 39.5809 43.2579 39.8159 43.3105 40.0469C43.3367 40.1616 43.3458 40.2743 43.3467 40.3945L43.333 40.7861C43.2881 41.7989 42.7487 42.6336 41.8428 43.0908C41.538 43.2453 41.0972 43.3231 40.6611 43.3242Z" fill="white" stroke="white" stroke-width="0.1"/>
<path d="M15.8066 28.0467C17.8872 28.0467 19.6327 27.6255 21.4229 26.6873H21.4238C22.6875 26.0384 23.5205 25.4159 24.5479 24.3719C27.0309 21.8645 28.2506 18.4805 27.9961 14.8758C27.7855 11.9651 26.5487 9.29104 24.4512 7.19513C21.8886 4.62599 18.3866 3.35399 14.7441 3.65216C11.9014 3.88015 9.2159 5.14307 7.16211 7.19513C2.42329 11.939 2.37976 19.6285 7.06543 24.3719C8.09281 25.416 8.92574 26.0384 10.1895 26.6873H10.1904C11.9806 27.6255 13.7261 28.0467 15.8066 28.0467ZM15.3066 26.4188C14.5632 26.3857 13.8253 26.3059 13.3535 26.1902C9.19415 25.1534 6.10637 21.8501 5.33008 17.6561L5.2627 17.2479C5.10312 16.1584 5.19984 14.3997 5.47461 13.3367C6.57223 9.11272 9.70658 6.19093 14.0127 5.35333L14.4326 5.27911C14.7561 5.22525 15.513 5.22991 16.2764 5.26837C16.8493 5.29725 17.432 5.34517 17.8457 5.40314L18.1973 5.46466C22.014 6.3645 25.0413 9.29789 26.0879 13.1151L26.1826 13.4871C26.325 14.0695 26.3955 14.9547 26.3955 15.8387C26.3955 16.7227 26.3249 17.6119 26.1826 18.2029C25.1558 22.5104 21.6586 25.7301 17.3115 26.367V26.368C16.8048 26.439 16.0502 26.4518 15.3066 26.4188Z" fill="white" stroke="white" stroke-width="0.1"/>
<path d="M8.45605 14.052C8.54825 14.0391 8.63284 13.9987 8.7207 13.9202C8.90041 13.7595 9.08588 13.4434 9.35547 12.887H9.35645C10.136 11.2939 11.0767 10.2902 12.5234 9.5452C13.4019 9.08417 14.2455 8.84477 15.2559 8.74734H15.2568C15.7145 8.70776 16.0167 8.64899 16.2168 8.55008C16.3158 8.50116 16.389 8.44315 16.4434 8.37332C16.4978 8.30335 16.5354 8.21914 16.5605 8.11649V8.11453C16.6591 7.76109 16.4525 7.34667 16.1055 7.20633C16.019 7.17179 15.9307 7.14092 15.8564 7.11942C15.7815 7.09772 15.7268 7.08771 15.7031 7.08719C15.627 7.09719 15.263 7.13149 14.8877 7.1741C14.0912 7.26155 12.9242 7.57699 12.1709 7.90945H12.1699C10.2792 8.74041 8.42991 10.7028 7.69434 12.636C7.53648 13.0566 7.4961 13.3574 7.56543 13.5725C7.63307 13.7822 7.8101 13.9238 8.12793 14.0139C8.25709 14.0505 8.36249 14.0651 8.45605 14.052Z" fill="white" stroke="white" stroke-width="0.1"/>
<path d="M7.43945 17.3754C7.95515 17.7826 8.70703 17.4317 8.70703 16.7895C8.70681 16.2312 8.2069 15.8823 7.68359 16.0473L7.5791 16.0873C7.339 16.193 7.19717 16.4301 7.16992 16.6869C7.14275 16.9438 7.23095 17.2118 7.43945 17.3754Z" fill="white" stroke="white" stroke-width="0.1"/>
</svg>
