<svg width="44" height="44" viewBox="0 0 44 44" fill="none" xmlns="http://www.w3.org/2000/svg">
<path d="M28.1133 21.1205L28.2549 20.9642L28.4033 20.7904L28.377 18.5453C28.3574 17.3626 28.3452 16.7686 28.3086 16.3744C28.2749 16.0112 28.2226 15.8345 28.1025 15.4789V15.4769C27.679 14.2062 26.7885 12.97 25.7637 12.1859L25.5576 12.0355C25.4059 11.9341 25.2635 11.831 25.1562 11.7455C25.1034 11.7033 25.0503 11.6579 25.0068 11.6156C24.9871 11.5963 24.9546 11.564 24.9248 11.5238C24.9109 11.505 24.8833 11.466 24.8604 11.4124C24.8498 11.3878 24.82 11.3109 24.8203 11.2074H24.8193V11.1771C24.8211 11.1501 24.8259 11.1218 24.833 11.0921C24.836 11.0791 24.8394 11.067 24.8428 11.056C24.8434 11.0539 24.844 11.0513 24.8447 11.0492V11.0501C24.8541 11.0212 24.8631 10.9995 24.8682 10.9886C24.8848 10.9531 24.9022 10.9256 24.9131 10.9095C24.9353 10.8768 24.9587 10.8494 24.9746 10.8314C25.0084 10.7932 25.0493 10.7527 25.0889 10.7152C25.1701 10.6382 25.2764 10.5451 25.3896 10.4525L25.3945 10.4486C26.1739 9.82498 26.9135 8.6636 27.21 7.58334V7.58237C27.3021 7.22648 27.3545 6.70563 27.3545 6.16147C27.3545 5.6189 27.3025 5.09933 27.2109 4.7435C26.589 2.41174 24.6761 0.7914 22.2607 0.529633L22.0352 0.509125C21.6876 0.490836 21.2079 0.502154 20.9775 0.533539C19.1711 0.829236 17.7161 1.80492 16.8535 3.27963L16.6895 3.58139C16.2603 4.43099 16.084 5.15811 16.084 6.15659C16.084 6.55623 16.1211 6.96969 16.1748 7.2894L16.2334 7.57358C16.5393 8.69201 17.25 9.80614 18.0498 10.4496L18.0537 10.4525C18.167 10.5451 18.2732 10.6381 18.3545 10.7152C18.3941 10.7527 18.435 10.7932 18.4688 10.8314C18.4847 10.8494 18.508 10.8768 18.5303 10.9095C18.5412 10.9256 18.5586 10.9531 18.5752 10.9886C18.5803 10.9995 18.5883 11.0213 18.5977 11.0501L18.5986 11.0492C18.5993 11.0512 18.599 11.054 18.5996 11.056C18.603 11.067 18.6063 11.079 18.6094 11.0921C18.6177 11.1269 18.6219 11.1598 18.623 11.1908C18.6232 11.1962 18.625 11.2017 18.625 11.2074H18.623C18.6234 11.3105 18.5937 11.3866 18.583 11.4115C18.5601 11.465 18.5324 11.504 18.5186 11.5228C18.4891 11.5627 18.4579 11.5955 18.4385 11.6146C18.3956 11.6567 18.3422 11.7022 18.29 11.7445C18.1825 11.8316 18.0392 11.9383 17.8877 12.0443L17.8838 12.0472L17.583 12.2718C16.8762 12.8415 16.1522 13.7086 15.7783 14.4486C15.451 15.1034 15.2776 15.5508 15.1777 16.1302C15.0745 16.7296 15.0469 17.4871 15.0469 18.7699V20.7982L15.1982 20.9652L15.2041 20.9701L15.3359 21.1205H28.1133ZM22.4463 10.7503C19.4985 11.2574 16.7779 8.65987 17.0879 5.73471L17.1279 5.45053C17.5928 2.71133 20.2058 0.962163 22.8652 1.64877L22.8682 1.64975C23.7623 1.88679 24.4641 2.3032 25.0996 2.97104L25.1006 2.97299C27.66 5.68491 26.1353 10.112 22.4473 10.7503H22.4463ZM15.957 19.6136L16.0156 18.0824C16.0305 17.6288 16.0576 17.1922 16.0928 16.8333C16.1258 16.496 16.1704 16.1708 16.2363 15.9798C16.8487 14.0516 18.3649 12.5356 20.2451 12.0335H20.2461C20.6512 11.9266 21.185 11.8759 21.6963 11.8734C22.207 11.8709 22.7442 11.9156 23.1562 12.0228L23.1572 12.0238C25.069 12.5257 26.6003 14.0363 27.2109 15.9945C27.2742 16.1871 27.3184 16.5043 27.3506 16.8333C27.3857 17.1922 27.4129 17.6288 27.4277 18.0824L27.4863 19.6136L27.5059 20.1331H15.9375L15.957 19.6136Z" stroke="white"/>
<path d="M5.71387 18.3292C5.75096 18.3243 5.78618 18.3106 5.83301 18.2676C5.95741 18.1534 6.1167 17.8735 6.2998 17.252C7.2596 13.9929 9.10233 11.2503 11.7793 9.1026V9.10162C12.2961 8.68514 12.5134 8.49415 12.6172 8.35748C12.6565 8.30565 12.6667 8.2759 12.6729 8.25201C12.6815 8.21787 12.6885 8.16474 12.6885 8.04694C12.6885 7.7934 12.3856 7.52451 12.0107 7.66119C12.0016 7.66629 11.9792 7.6791 11.9404 7.70416C11.8829 7.74136 11.8082 7.79353 11.7188 7.85944C11.5404 7.99082 11.3167 8.16602 11.0752 8.3653C10.5907 8.76507 10.0506 9.24437 9.67285 9.62213C7.66498 11.63 6.13985 14.1842 5.38867 16.8038L5.3877 16.8077C5.18923 17.4806 5.14951 17.8456 5.18555 18.045C5.20021 18.1258 5.2244 18.1604 5.24414 18.1807C5.25655 18.1935 5.27622 18.2096 5.30762 18.2276L5.44238 18.2852C5.58299 18.3315 5.66674 18.3353 5.71387 18.3292Z" stroke="white"/>
<path d="M37.752 18.3347C37.7974 18.3366 37.8815 18.3248 38.0195 18.2595V18.2604C38.1315 18.2071 38.182 18.1626 38.207 18.1325C38.2274 18.108 38.2483 18.0714 38.2598 17.9938C38.281 17.8494 38.2622 17.6208 38.1709 17.2399L38.0537 16.8054C37.1046 13.5353 34.9563 10.3764 32.1973 8.21942C31.5532 7.72179 31.4008 7.66358 31.2188 7.64227C31.1299 7.6332 31.079 7.63084 31.0459 7.63153C31.0173 7.63214 31.0174 7.63433 31.0283 7.63055C31.0457 7.62435 31.0292 7.61995 30.8984 7.75067C30.8076 7.84146 30.7837 7.88461 30.7744 7.90594C30.7667 7.92362 30.7539 7.96001 30.7539 8.0661C30.7539 8.16933 30.7619 8.22065 30.7715 8.25458C30.7794 8.2825 30.7934 8.31809 30.8369 8.37469C30.9439 8.51388 31.1603 8.70479 31.6475 9.08759C34.2343 11.103 36.1931 14.0237 37.1426 17.2516V17.2526C37.329 17.8882 37.505 18.1742 37.6348 18.2829C37.6832 18.3234 37.7174 18.3332 37.752 18.3347Z" stroke="white"/>
<path d="M7.24512 42.8872C10.1429 42.8872 11.7126 42.8846 12.5977 42.8618C13.5229 42.838 13.6018 42.7875 13.6328 42.771L13.6396 42.7671L13.6465 42.7642C13.7934 42.692 13.8201 42.6678 13.8301 42.6567C13.8316 42.6551 13.8367 42.6497 13.8447 42.6313C13.8541 42.6097 13.8677 42.5694 13.8809 42.4985C13.9258 42.2564 13.9365 41.8544 13.9307 41.1099L13.9199 40.2437C13.8906 38.1333 13.8582 37.9131 13.6836 37.3892L13.6826 37.3843C13.1603 35.772 12.1688 34.4412 10.9551 33.6792L10.9473 33.6743L10.5303 33.4028L10.0137 33.0669L11.2354 31.8452V31.8462C12.3747 30.6976 12.8828 29.4755 12.8828 27.8745C12.8828 26.2733 12.3741 25.0516 11.2344 23.9028L11.2324 23.9019C10.6387 23.299 10.3644 23.1108 9.76074 22.8179C9.32905 22.6117 8.80522 22.416 8.6123 22.3696H8.61133C7.91167 22.2014 6.89877 22.1748 6.25391 22.2964H6.25488C5.32322 22.4773 4.68288 22.7508 3.95898 23.269C1.08902 25.328 0.768054 29.4046 3.27344 31.8921L3.27441 31.894L4.01172 32.6304L4.45215 33.0718L3.92578 33.4058L3.5 33.6772L3.49316 33.6812L3.27832 33.8296C3.04863 34.0018 2.77831 34.2435 2.50781 34.521C2.23978 34.796 1.98716 35.09 1.78711 35.3599L1.60547 35.6206C1.13127 36.3639 0.730365 37.4482 0.604492 38.356V38.3579L0.577148 38.5796C0.519212 39.1406 0.493604 39.9944 0.500977 40.7983C0.505159 41.2536 0.520196 41.6821 0.543945 42.0181C0.555851 42.1865 0.570022 42.3263 0.584961 42.4321C0.601985 42.5527 0.614702 42.5864 0.609375 42.5737V42.5747C0.64428 42.6587 0.662738 42.6996 0.670898 42.7173C0.684965 42.724 0.717335 42.7382 0.78125 42.7534C0.874131 42.7756 1.01151 42.7969 1.2168 42.8149C2.05604 42.8888 3.7322 42.8872 7.24512 42.8872ZM9.36133 32.0239C6.30744 33.5779 2.60547 31.3805 2.60547 27.8745C2.60563 24.8133 5.464 22.6068 8.41699 23.3667L8.41797 23.3677C10.2187 23.8369 11.5593 25.36 11.8506 27.2446C12.108 28.8921 11.3129 30.6952 9.9375 31.6772L9.6543 31.8618L9.36133 32.0239ZM1.53906 40.0132C1.53907 38.8899 1.63452 38.0135 1.90918 37.2505C2.15288 36.5735 2.52601 36.0147 3.0459 35.4624L3.27832 35.2261C4.41513 34.1104 5.63276 33.6025 7.21484 33.5903V33.5894C7.21614 33.5893 7.21745 33.5904 7.21875 33.5903C7.22 33.5903 7.22141 33.5894 7.22266 33.5894V33.5903C7.68714 33.5808 8.32085 33.6515 8.66309 33.7427C10.6401 34.2639 12.2301 35.8534 12.751 37.8306L12.75 37.8315C12.8662 38.2562 12.9131 38.9871 12.9131 39.9165V41.8511H1.53906V40.0132Z" stroke="white"/>
<path d="M36.1973 42.8872C39.7101 42.8872 41.3864 42.8888 42.2256 42.8149C42.4308 42.7969 42.5683 42.7756 42.6611 42.7534C42.7239 42.7384 42.7561 42.7241 42.7705 42.7173C42.7786 42.6998 42.7979 42.6593 42.833 42.5747V42.5737C42.8285 42.5844 42.8416 42.5506 42.8584 42.436C42.8732 42.3349 42.8865 42.2016 42.8984 42.0405C42.9223 41.719 42.9376 41.3092 42.9424 40.8687C42.952 39.9824 42.9201 39.0098 42.8467 38.4175C42.7298 37.4825 42.3285 36.3813 41.8369 35.6216C41.6127 35.2792 41.2705 34.8688 40.9072 34.4985C40.5433 34.1277 40.1899 33.8298 39.9443 33.6812L39.5186 33.438L38.9473 33.1138L40.1094 31.9517C41.1591 30.9019 41.6877 29.8203 41.8232 28.4604L41.8447 28.1841C42.0489 24.6394 38.9008 21.7457 35.4072 22.2612L35.4053 22.2622L35.1748 22.2993C34.0391 22.5057 33.1051 23.0156 32.207 23.9136L32.2051 23.9155C31.0691 25.0426 30.5596 26.2719 30.5596 27.8745C30.5596 29.4753 31.0671 30.6977 32.2061 31.8462L32.207 31.8452L33.4287 33.0669L32.9111 33.4028L32.4951 33.6743L32.4873 33.6792C31.2735 34.4412 30.2821 35.7719 29.7598 37.3843V37.3853L29.7588 37.3892L29.6992 37.5757C29.611 37.8769 29.5715 38.1666 29.5469 38.98L29.5225 40.2437C29.5026 41.5685 29.5016 42.1756 29.5615 42.4985C29.5747 42.5694 29.5873 42.6097 29.5967 42.6313C29.6048 42.6501 29.6108 42.6551 29.6123 42.6567C29.6223 42.6678 29.6483 42.6921 29.7949 42.7642L29.8027 42.7671L29.8096 42.771C29.8406 42.7875 29.9202 42.838 30.8447 42.8618C31.7298 42.8846 33.2996 42.8872 36.1973 42.8872ZM40.8369 27.8745C40.8369 30.9253 37.9793 33.1425 35.0254 32.3823H35.0234C33.2227 31.9129 31.8829 30.3891 31.5918 28.5044C31.3173 26.7471 32.2407 24.8134 33.7881 23.8872L33.79 23.8862C34.8462 23.2612 36.1673 23.0495 37.3164 23.3589L37.3154 23.3599C39.4175 23.9208 40.8368 25.7217 40.8369 27.8745ZM30.5293 39.9165C30.5293 38.9859 30.5749 38.254 30.6914 37.8296V37.8286C31.212 35.8846 32.7988 34.2749 34.7363 33.7427H34.7393C35.1248 33.6391 35.6518 33.5942 36.1533 33.5942C36.6565 33.5942 37.1895 33.6393 37.5898 33.7407L37.5957 33.7417C38.633 34.0169 39.3685 34.4411 40.165 35.2271L40.1641 35.228C40.8063 35.8602 41.255 36.4802 41.5332 37.2544C41.8077 38.0184 41.9033 38.8945 41.9033 40.0132V41.8511H30.5293V39.9165Z" stroke="white"/>
<path d="M19.6924 38.5869C20.9673 38.7544 22.6418 38.7164 24.0967 38.5381C24.8224 38.4492 25.4794 38.3267 25.9941 38.1836C26.2514 38.1121 26.4644 38.0378 26.6289 37.9639C26.7998 37.887 26.8878 37.824 26.9229 37.7891C27.116 37.596 27.0512 37.1854 26.7568 37.0635L26.752 37.0616C26.6681 37.0261 26.632 37.02 26.5889 37.0196C26.5564 37.0192 26.5143 37.0222 26.4531 37.0313L26.2002 37.0801C25.9086 37.146 25.2868 37.2935 24.8301 37.3907C24.2403 37.5262 23.3329 37.6139 22.4287 37.6504C21.5182 37.6872 20.5648 37.6743 19.8828 37.5928C19.3224 37.5317 18.4375 37.3622 17.9082 37.2325L17.9004 37.2305C17.3527 37.0874 17.0767 37.0286 16.9014 37.0186C16.7775 37.0116 16.728 37.0281 16.6221 37.0869L16.6172 37.0889C16.5329 37.135 16.4449 37.2584 16.4346 37.4532C16.4245 37.645 16.4969 37.7952 16.5898 37.8672C16.5971 37.8716 16.6222 37.8859 16.6729 37.9082C16.7325 37.9345 16.812 37.9645 16.9111 37.9981C17.1099 38.0653 17.3684 38.1389 17.667 38.2119C18.2637 38.3579 18.9974 38.4973 19.6914 38.5869H19.6924Z" stroke="white"/>
</svg>
