<svg width="140" height="27" viewBox="0 0 140 27" fill="none" xmlns="http://www.w3.org/2000/svg">
<path d="M116.395 6.90911V10.5455H105.884V6.90911H116.395ZM108.27 2.72729H113.111V19C113.111 19.447 113.179 19.7955 113.315 20.0455C113.452 20.2879 113.641 20.4584 113.884 20.5568C114.134 20.6553 114.421 20.7046 114.747 20.7046C114.974 20.7046 115.202 20.6856 115.429 20.6477C115.656 20.6023 115.831 20.5682 115.952 20.5455L116.713 24.1477C116.471 24.2235 116.13 24.3106 115.69 24.4091C115.251 24.5152 114.717 24.5796 114.088 24.6023C112.921 24.6477 111.899 24.4924 111.02 24.1364C110.149 23.7803 109.471 23.2273 108.986 22.4773C108.501 21.7273 108.262 20.7803 108.27 19.6364V2.72729Z" fill="white"/>
<path d="M104.153 6.90909V10.5455H93.3807V6.90909H104.153ZM95.8466 24.3636V5.64773C95.8466 4.38258 96.0929 3.33333 96.5853 2.5C97.0853 1.66667 97.7671 1.04167 98.6307 0.625C99.4944 0.208333 100.475 0 101.574 0C102.316 0 102.994 0.0568186 103.608 0.170456C104.229 0.284092 104.691 0.386365 104.994 0.477274L104.131 4.11364C103.941 4.05303 103.706 3.99621 103.426 3.94318C103.153 3.89015 102.873 3.86364 102.585 3.86364C101.873 3.86364 101.377 4.0303 101.097 4.36364C100.816 4.6894 100.676 5.14773 100.676 5.73864V24.3636H95.8466Z" fill="white"/>
<path d="M83.0284 24.7046C81.2633 24.7046 79.7367 24.3296 78.4489 23.5796C77.1686 22.822 76.1799 21.7689 75.483 20.4205C74.786 19.0644 74.4375 17.4924 74.4375 15.7045C74.4375 13.9015 74.786 12.3258 75.483 10.9773C76.1799 9.62122 77.1686 8.56819 78.4489 7.81819C79.7367 7.06061 81.2633 6.68182 83.0284 6.68182C84.7936 6.68182 86.3163 7.06061 87.5966 7.81819C88.8845 8.56819 89.8769 9.62122 90.5739 10.9773C91.2708 12.3258 91.6193 13.9015 91.6193 15.7045C91.6193 17.4924 91.2708 19.0644 90.5739 20.4205C89.8769 21.7689 88.8845 22.822 87.5966 23.5796C86.3163 24.3296 84.7936 24.7046 83.0284 24.7046ZM83.0511 20.9545C83.8542 20.9545 84.5246 20.7273 85.0625 20.2727C85.6004 19.8106 86.0057 19.1818 86.2784 18.3864C86.5587 17.5909 86.6989 16.6856 86.6989 15.6705C86.6989 14.6553 86.5587 13.75 86.2784 12.9545C86.0057 12.1591 85.6004 11.5303 85.0625 11.0682C84.5246 10.6061 83.8542 10.375 83.0511 10.375C82.2405 10.375 81.5587 10.6061 81.0057 11.0682C80.4602 11.5303 80.0473 12.1591 79.767 12.9545C79.4943 13.75 79.358 14.6553 79.358 15.6705C79.358 16.6856 79.4943 17.5909 79.767 18.3864C80.0473 19.1818 80.4602 19.8106 81.0057 20.2727C81.5587 20.7273 82.2405 20.9545 83.0511 20.9545Z" fill="white"/>
<path d="M71.696 11.8864L67.2641 12.1591C67.1884 11.7803 67.0255 11.4394 66.7755 11.1364C66.5255 10.8258 66.196 10.5796 65.7869 10.3977C65.3854 10.2083 64.9043 10.1136 64.3437 10.1136C63.5937 10.1136 62.9611 10.2727 62.446 10.5909C61.9308 10.9015 61.6732 11.3182 61.6732 11.8409C61.6732 12.2576 61.8399 12.6099 62.1732 12.8977C62.5066 13.1856 63.0785 13.4167 63.8891 13.5909L67.0482 14.2273C68.7452 14.5758 70.0104 15.1364 70.8437 15.9091C71.677 16.6818 72.0937 17.697 72.0937 18.9545C72.0937 20.0985 71.7566 21.1023 71.0823 21.9659C70.4157 22.8295 69.499 23.5038 68.3323 23.9886C67.1732 24.4659 65.8361 24.7046 64.321 24.7046C62.0104 24.7046 60.1695 24.2235 58.7982 23.2614C57.4346 22.2917 56.6354 20.9735 56.4005 19.3068L61.1619 19.0568C61.3058 19.7614 61.6543 20.2992 62.2073 20.6705C62.7604 21.0341 63.4687 21.2159 64.3323 21.2159C65.1808 21.2159 65.8626 21.053 66.3778 20.7273C66.9005 20.3939 67.1657 19.9659 67.1732 19.4432C67.1657 19.0038 66.9801 18.6439 66.6164 18.3636C66.2528 18.0758 65.6922 17.8561 64.9346 17.7045L61.9119 17.1023C60.2073 16.7614 58.9384 16.1705 58.1051 15.3295C57.2793 14.4886 56.8664 13.4167 56.8664 12.1136C56.8664 10.9924 57.1695 10.0265 57.7755 9.21591C58.3891 8.40531 59.249 7.78031 60.3551 7.34091C61.4687 6.90152 62.7717 6.68182 64.2641 6.68182C66.4687 6.68182 68.2035 7.14773 69.4687 8.07955C70.7414 9.01137 71.4838 10.2803 71.696 11.8864Z" fill="white"/>
<path d="M45.4347 24.7046C43.6695 24.7046 42.143 24.3296 40.8551 23.5796C39.5748 22.822 38.5862 21.7689 37.8892 20.4205C37.1922 19.0644 36.8438 17.4924 36.8438 15.7045C36.8438 13.9015 37.1922 12.3258 37.8892 10.9773C38.5862 9.62122 39.5748 8.56819 40.8551 7.81819C42.143 7.06061 43.6695 6.68182 45.4347 6.68182C47.1998 6.68182 48.7225 7.06061 50.0028 7.81819C51.2907 8.56819 52.2831 9.62122 52.9801 10.9773C53.6771 12.3258 54.0256 13.9015 54.0256 15.7045C54.0256 17.4924 53.6771 19.0644 52.9801 20.4205C52.2831 21.7689 51.2907 22.822 50.0028 23.5796C48.7225 24.3296 47.1998 24.7046 45.4347 24.7046ZM45.4574 20.9545C46.2604 20.9545 46.9309 20.7273 47.4688 20.2727C48.0066 19.8106 48.4119 19.1818 48.6847 18.3864C48.965 17.5909 49.1051 16.6856 49.1051 15.6705C49.1051 14.6553 48.965 13.75 48.6847 12.9545C48.4119 12.1591 48.0066 11.5303 47.4688 11.0682C46.9309 10.6061 46.2604 10.375 45.4574 10.375C44.6468 10.375 43.965 10.6061 43.4119 11.0682C42.8665 11.5303 42.4536 12.1591 42.1733 12.9545C41.9006 13.75 41.7642 14.6553 41.7642 15.6705C41.7642 16.6856 41.9006 17.5909 42.1733 18.3864C42.4536 19.1818 42.8665 19.8106 43.4119 20.2727C43.965 20.7273 44.6468 20.9545 45.4574 20.9545Z" fill="white"/>
<path d="M35.6336 6.90906L29.5313 24.3636H24.0768L17.9745 6.90906H23.0881L26.7131 19.3977H26.8949L30.5086 6.90906H35.6336Z" fill="white"/>
<path d="M8.65909 24.7046C6.86364 24.7046 5.31818 24.3409 4.02273 23.6136C2.73485 22.8788 1.74242 21.8409 1.04545 20.5C0.348485 19.1515 0 17.5568 0 15.7159C0 13.9205 0.348485 12.3447 1.04545 10.9886C1.74242 9.63258 2.72348 8.57576 3.98864 7.81819C5.26136 7.06061 6.75379 6.68182 8.46591 6.68182C9.61742 6.68182 10.6894 6.86743 11.6818 7.23864C12.6818 7.60228 13.553 8.15152 14.2955 8.88637C15.0455 9.62122 15.6288 10.5455 16.0455 11.6591C16.4621 12.7652 16.6705 14.0606 16.6705 15.5455V16.875H1.93182V13.875H12.1136C12.1136 13.178 11.9621 12.5606 11.6591 12.0227C11.3561 11.4849 10.9356 11.0644 10.3977 10.7614C9.86742 10.4508 9.25 10.2955 8.54545 10.2955C7.81061 10.2955 7.15909 10.4659 6.59091 10.8068C6.0303 11.1402 5.59091 11.5909 5.27273 12.1591C4.95455 12.7197 4.79167 13.3447 4.78409 14.0341V16.8864C4.78409 17.75 4.94318 18.4962 5.26136 19.125C5.58712 19.7538 6.04545 20.2386 6.63636 20.5795C7.22727 20.9205 7.92803 21.0909 8.73864 21.0909C9.27652 21.0909 9.76894 21.0152 10.2159 20.8636C10.6629 20.7121 11.0455 20.4849 11.3636 20.1818C11.6818 19.8788 11.9242 19.5076 12.0909 19.0682L16.5682 19.3636C16.3409 20.4394 15.875 21.3788 15.1705 22.1818C14.4735 22.9773 13.572 23.5985 12.4659 24.0455C11.3674 24.4849 10.0985 24.7046 8.65909 24.7046Z" fill="white"/>
<path d="M125.903 7.73451C124.914 6.74576 124.914 5.14267 125.903 4.15392C126.892 3.16516 128.495 3.16516 129.484 4.15392L137.697 12.3678C138.686 13.3565 138.686 14.9596 137.697 15.9484C136.709 16.9371 135.106 16.9371 134.117 15.9484L125.903 7.73451Z" fill="#166D96"/>
<path d="M129.581 24.3031C128.603 25.2802 127.019 25.2802 126.042 24.3031Lnan nanL126.042 24.3031C125.065 23.326 125.065 21.7418 126.042 20.7648L135.197 11.6104C135.308 11.4989 135.399 11.3687 135.466 11.2258C135.564 11.0163 135.607 10.7852 135.59 10.5545L135.567 10.2391L137.837 12.5086C138.814 13.4857 138.814 15.0699 137.837 16.047L129.581 24.3031Z" fill="#2095D4"/>
</svg>
