<svg width="200" height="56" viewBox="0 0 200 56" fill="none" xmlns="http://www.w3.org/2000/svg">
<path fill-rule="evenodd" clip-rule="evenodd" d="M68.0702 16.75L56.5607 39.25H45.75L50.5667 29.925H50.3506C46.3769 35.0835 40.4479 38.4794 32 39.25V30.0541C32 30.0541 37.4043 29.7349 40.5814 26.3947H32V16.7502H41.6445V24.6826L41.861 24.6818L45.8021 16.7502H53.096V24.6323L53.3124 24.632L57.4014 16.75H68.0702Z" fill="black"/>
<path d="M130.833 36.7665H133.939V18.9375H130.833V36.7665Z" fill="black"/>
<path fill-rule="evenodd" clip-rule="evenodd" d="M113.709 36.5842C114.384 36.8649 115.071 37.0052 115.769 37.0052C116.921 37.0052 117.953 36.7246 118.863 36.1632C119.773 35.602 120.479 34.8284 120.98 33.8422C121.48 32.8486 121.73 31.7221 121.73 30.463C121.73 29.2039 121.473 28.0775 120.957 27.0838C120.441 26.0902 119.724 25.3203 118.806 24.7741C117.889 24.2204 116.846 23.9474 115.677 23.9549C114.934 23.9549 114.221 24.0991 113.538 24.3873C112.856 24.6755 112.287 25.0851 111.832 25.6161C111.797 25.6565 111.763 25.6974 111.729 25.7386V18.9487H108.612V36.7664H111.707L111.7 35.1019C111.78 35.2 111.866 35.2959 111.957 35.3896C112.45 35.8979 113.034 36.296 113.709 36.5842ZM116.895 33.7057C116.387 34.0167 115.806 34.1722 115.154 34.1722C114.509 34.1722 113.918 34.0129 113.379 33.6944C112.841 33.3681 112.412 32.9245 112.093 32.3631C111.782 31.8019 111.627 31.1646 111.627 30.4516C111.619 29.7386 111.771 29.1015 112.082 28.5402C112.401 27.9713 112.829 27.5314 113.368 27.2204C113.906 26.9018 114.502 26.7463 115.154 26.7539C115.806 26.7463 116.387 26.898 116.895 27.209C117.411 27.5124 117.805 27.9485 118.078 28.5174C118.359 29.0787 118.499 29.7235 118.499 30.4516C118.499 31.1799 118.359 31.8246 118.078 32.3859C117.805 32.9472 117.411 33.3871 116.895 33.7057Z" fill="black"/>
<path d="M72.5701 20.0186H76.1199L79.2954 31.6155L82.6736 20.0186H85.6318L89.2954 31.3828L92.3447 20.0186H95.5987L90.7973 36.7667H87.7367L84.0112 25.6647L80.5914 36.7667H77.4967L72.5701 20.0186Z" fill="black"/>
<path fill-rule="evenodd" clip-rule="evenodd" d="M100.841 37.0621C99.6048 37.0697 98.4898 36.7966 97.4962 36.243C96.51 35.6816 95.7327 34.9041 95.1637 33.9105C94.6024 32.9168 94.3218 31.7828 94.3218 30.5085C94.3218 29.2721 94.61 28.1533 95.1865 27.1521C95.7629 26.1508 96.5442 25.3696 97.5303 24.8083C98.5164 24.247 99.6162 23.9663 100.83 23.9663C102.195 23.9663 103.39 24.2697 104.414 24.8765C105.445 25.4833 106.215 26.3443 106.724 27.4593C107.239 28.5667 107.425 29.8372 107.281 31.2708H97.5352C97.5624 31.842 97.7049 32.3616 97.9627 32.8296C98.2509 33.3453 98.6529 33.7473 99.1687 34.0356C99.6845 34.3238 100.261 34.468 100.898 34.468C101.384 34.4603 101.835 34.377 102.252 34.2177C102.669 34.0508 103.022 33.8271 103.31 33.5463C103.606 33.2657 103.815 32.9472 103.936 32.5907H107.19C106.993 33.463 106.598 34.2405 106.007 34.9231C105.415 35.5982 104.672 36.1253 103.777 36.5046C102.882 36.8838 101.903 37.0697 100.841 37.0621ZM97.974 28.1419C97.7923 28.4589 97.6663 28.8002 97.5962 29.166H104.057C104.01 28.704 103.867 28.283 103.629 27.903C103.356 27.4555 102.984 27.1104 102.514 26.8676C102.044 26.6173 101.513 26.4922 100.921 26.4922C100.291 26.4922 99.7187 26.6363 99.2028 26.9245C98.687 27.2128 98.2774 27.6186 97.974 28.1419Z" fill="black"/>
<path d="M124.018 24.2282C124.018 23.2118 124.249 22.3092 124.712 21.5203C125.174 20.7239 125.823 20.1057 126.657 19.6657C127.499 19.2182 128.482 18.9868 129.604 18.9717V21.7365C129.081 21.7441 128.633 21.854 128.262 22.0664C127.898 22.2712 127.617 22.5708 127.42 22.9653C127.238 23.3284 127.14 23.7494 127.126 24.2282H129.536V26.8565H127.124V36.7665H124.018V26.8565H122.015V24.2282H124.018Z" fill="black"/>
<path fill-rule="evenodd" clip-rule="evenodd" d="M141.835 37.0395C140.568 37.0395 139.434 36.7626 138.433 36.209C137.439 35.6476 136.658 34.874 136.089 33.8879C135.528 32.8942 135.247 31.7679 135.247 30.5086C135.247 29.242 135.528 28.1118 136.089 27.1181C136.658 26.1169 137.439 25.3394 138.433 24.7857C139.434 24.2319 140.568 23.9551 141.835 23.9551C143.109 23.9551 144.247 24.2319 145.248 24.7857C146.257 25.3394 147.042 26.1131 147.603 27.1067C148.165 28.1004 148.449 29.2344 148.457 30.5086C148.449 31.7679 148.165 32.8942 147.603 33.8879C147.05 34.874 146.268 35.6476 145.259 36.209C144.251 36.7626 143.109 37.0395 141.835 37.0395ZM141.835 34.1837C142.502 34.1837 143.094 34.032 143.61 33.7286C144.126 33.4176 144.524 32.9852 144.804 32.4315C145.085 31.8702 145.225 31.2292 145.225 30.5086C145.225 29.7805 145.085 29.1357 144.804 28.5745C144.524 28.0132 144.126 27.5808 143.61 27.2774C143.094 26.9664 142.502 26.8109 141.835 26.8109C141.175 26.8109 140.587 26.9664 140.071 27.2774C139.563 27.5808 139.169 28.0132 138.888 28.5745C138.607 29.1357 138.471 29.7805 138.478 30.5086C138.478 31.2292 138.619 31.8702 138.899 32.4315C139.188 32.9852 139.582 33.4176 140.083 33.7286C140.591 34.032 141.175 34.1837 141.835 34.1837Z" fill="black"/>
<path d="M151.813 24.228H148.354L152.098 36.7664H155.124L157.586 28.7581L160.244 36.7664H163.225L166.98 24.228H163.851L161.721 32.0324L159.367 24.228H156.341L153.999 32.2042L151.813 24.228Z" fill="black"/>
</svg>
